<svg xmlns="http://www.w3.org/2000/svg" viewBox="0 0 64 64">
  <circle cx="32" cy="32" r="30" fill="#f7931a"/>
  <path d="M42 25.5c.4-2.7-1.7-4.1-4.5-5.1l.9-3.7-2.2-.6-.9 3.6c-.6-.1-1.2-.3-1.8-.4l.9-3.6-2.2-.6-.9 3.7c-.5-.1-1-.2-1.4-.3l-3.1-.8-.6 2.3s1.7.4 1.6.4c.9.2 1.1.8 1 1.3l-2.4 9.8c-.1.3-.4.8-1.1.6 0 0-1.6-.4-1.6-.4l-1.1 2.5 2.9.7c.5.1 1.1.3 1.6.4l-.9 3.7 2.2.6.9-3.7c.6.2 1.2.3 1.8.4l-.9 3.7 2.2.6.9-3.7c3.7.7 6.5.4 7.7-3 1-2.7 0-4.3-2.1-5.3 1.5-.3 2.6-1.3 2.9-3.4zm-5.2 7.4c-.7 2.7-5.3 1.2-6.8.9l1.2-4.9c1.5.4 6.3 1.2 5.6 4zm.7-7.1c-.6 2.5-4.5 1.2-5.7.9l1.1-4.4c1.2.3 5.2 1 4.6 3.5z" fill="#ffffff"/>
</svg>
