<svg xmlns="http://www.w3.org/2000/svg" viewBox="0 0 64 64">
  <circle cx="32" cy="32" r="30" fill="#85bb65"/>
  <path d="M35 15v4.2c3.2.6 5.7 2.2 6.8 4.8.4 1 .6 2.1.6 3.2 0 2.1-.8 3.9-2.3 5.2-1.5 1.3-3.7 2.4-6.5 3.2v8.8c1.8-.2 3.2-.8 4.1-1.8.9-1 1.5-2.4 1.7-4.2h4.2c-.2 3-1.3 5.2-3.2 6.8-1.2 1-2.9 1.6-4.7 1.9V49h-2.8v-4.1c-3.2-.5-5.8-1.9-7.1-4.4-.7-1.3-1-2.8-1-4.4 0-2.2.8-4 2.4-5.4 1.6-1.4 3.7-2.4 6.4-3.1v-8.4c-1.6.2-2.9.8-3.7 1.7-.8.9-1.3 2.2-1.5 3.9h-4.2c.1-2.7 1-4.8 2.7-6.3 1.1-1 2.6-1.6 4.3-1.9V15h2.8zm-2.8 13.9c-1.7.5-2.9 1.1-3.7 1.8-.8.7-1.2 1.6-1.2 2.7 0 1.1.4 2 1.1 2.7.7.7 1.9 1.2 3.7 1.5v-8.7zm2.8 7.9c1.9-.4 3.3-1 4.2-1.8.9-.8 1.3-1.8 1.3-3 0-1.1-.4-2.1-1.2-2.8-.8-.7-2.2-1.3-4.3-1.6v9.2z" fill="#ffffff"/>
</svg>
